<?xml version="1.0" encoding="utf-8"?>
<!-- Generator: Adobe Illustrator 27.2.0, SVG Export Plug-In . SVG Version: 6.00 Build 0)  -->
<svg width="1080" height="433.7" version="1.1" id="Layer_1" xmlns="http://www.w3.org/2000/svg" xmlns:xlink="http://www.w3.org/1999/xlink" x="0px" y="0px"
	 viewBox="0 0 1080 433.7" style="enable-background:new 0 0 1080 433.7;" xml:space="preserve">
<style type="text/css">
	.st0{fill:none;stroke:#FFFFFF;stroke-width:1.3384;stroke-miterlimit:10;}
	.st1{fill:#FFFFFF;}
</style>
<g>
	<path id="background" class="st0" d="M155.9,75.3h768.2c18.7,0,34,15.2,34,34v215.1c0,18.7-15.2,34-34,34H155.9
		c-18.7,0-34-15.2-34-34V109.3C121.9,90.5,137.1,75.3,155.9,75.3z"/>
	<g id="icon" transform="translate(130 88)">
		<path id="Fill-2" class="st1" d="M174.9,122.4c-0.2-20.3,16.6-30.1,17.3-30.6c-9.5-13.8-24.2-15.7-29.4-15.9
			c-12.3-1.3-24.4,7.4-30.6,7.4c-6.4,0-16.1-7.3-26.6-7.1c-13.4,0.2-26,8-32.9,20.1c-14.2,24.6-3.6,60.9,10,80.8
			c6.9,9.7,14.8,20.7,25.3,20.3c10.2-0.4,14.1-6.5,26.3-6.5c12.2,0,15.8,6.5,26.4,6.3c11-0.2,17.8-9.8,24.5-19.6
			c7.9-11.1,11-22.2,11.1-22.8C196.2,154.7,175.1,146.6,174.9,122.4"/>
		<path id="Fill-3" class="st1" d="M154.8,62.8c5.5-6.9,9.2-16.2,8.2-25.7c-7.9,0.3-17.9,5.5-23.6,12.2c-5.1,6-9.6,15.6-8.4,24.7
			C140,74.8,149.1,69.6,154.8,62.8"/>
	</g>
	<g transform="translate(459 218)">
		<path id="Fill-4" class="st1" d="M-6.2,66h-14.3l-7.8-24.6h-27.2L-62.8,66h-13.9l26.9-83.6h16.6L-6.2,66L-6.2,66z M-30.6,31.1
			l-7.1-21.8c-0.7-2.3-2.1-7.5-4.2-15.7h-0.3c-0.8,3.6-2.1,8.8-3.9,15.7l-7,21.8H-30.6z"/>
		<path id="Fill-5" class="st1" d="M62.9,35.1c0,10.2-2.8,18.3-8.4,24.3c-5,5.3-11.2,7.9-18.6,7.9c-8,0-13.7-2.8-17.2-8.5v31.7H5.4
			V25.5c0-6.5-0.2-13-0.5-19.8h11.8l0.7,9.6h0.2C22.1,8.1,28.9,4.5,37.9,4.5c7.1,0,13,2.8,17.8,8.4C60.6,18.6,62.9,25.9,62.9,35.1
			L62.9,35.1z M49.3,35.6c0-5.9-1.3-10.7-3.9-14.5c-2.9-3.9-6.8-6-11.7-6c-3.3,0-6.3,1.1-9,3.3c-2.7,2.2-4.5,5.1-5.3,8.6
			c-0.4,1.6-0.6,3-0.6,4.1v10.1c0,4.3,1.4,8.1,4,11.1s6.2,4.5,10.5,4.5c5.1,0,8.9-2,11.8-5.8C47.9,47.1,49.3,42,49.3,35.6L49.3,35.6
			z"/>
		<path id="Fill-6" class="st1" d="M132.2,35.1c0,10.2-2.8,18.3-8.4,24.3c-5,5.3-11.2,7.9-18.6,7.9c-8,0-13.7-2.8-17.2-8.5v31.7
			H74.7V25.5c0-6.5-0.2-13-0.5-19.8H86l0.7,9.6h0.2c4.5-7.2,11.3-10.8,20.3-10.8c7.1,0,13,2.8,17.8,8.4
			C129.9,18.6,132.2,25.9,132.2,35.1L132.2,35.1z M118.6,35.6c0-5.9-1.3-10.7-3.9-14.5c-2.9-3.9-6.8-6-11.7-6c-3.3,0-6.3,1.1-9,3.3
			c-2.7,2.2-4.4,5.1-5.3,8.6c-0.4,1.6-0.6,3-0.6,4.1v10.1c0,4.3,1.4,8.1,4,11.1c2.7,3,6.2,4.5,10.5,4.5c5.1,0,9-2,11.8-5.8
			C117.2,47.1,118.6,42,118.6,35.6L118.6,35.6z"/>
		<path id="Fill-7" class="st1" d="M209.8,42.6c0,7.1-2.5,12.9-7.4,17.4c-5.4,4.9-13,7.3-22.8,7.3c-9,0-16.2-1.7-21.6-5.2l3.1-11.1
			c5.9,3.4,12.3,5.2,19.4,5.2c5.1,0,9-1.1,11.8-3.4c2.8-2.3,4.2-5.3,4.2-9.1c0-3.4-1.2-6.2-3.4-8.5c-2.3-2.3-6.2-4.5-11.5-6.5
			c-14.8-5.5-22.1-13.5-22.1-24c0-6.9,2.6-12.4,7.8-16.9c5.2-4.3,12-6.6,20.5-6.6c7.6,0,13.9,1.3,19,3.9L203.3-4
			c-4.8-2.5-10.1-3.8-16.1-3.8c-4.7,0-8.4,1.2-11.1,3.4c-2.2,2.1-3.3,4.6-3.3,7.6c0,3.3,1.3,6.1,3.8,8.2c2.2,2,6.3,4.1,12.2,6.5
			c7.2,2.9,12.4,6.3,15.9,10.2C208.1,31.9,209.8,36.8,209.8,42.6"/>
		<path id="Fill-8" class="st1" d="M254.2,15.8h-14.8v29.3c0,7.4,2.6,11.1,7.8,11.1c2.4,0,4.3-0.2,6-0.6l0.4,10.2
			c-2.7,1-6.1,1.5-10.4,1.5c-5.3,0-9.4-1.6-12.4-4.9c-3-3.2-4.5-8.7-4.5-16.3V15.7h-8.8v-10h8.8v-11l13.1-3.9v15h14.8V15.8"/>
		<path id="Fill-9" class="st1" d="M320.6,35.4c0,9.3-2.7,16.9-7.9,22.8c-5.6,6.1-12.9,9.2-22.1,9.2c-8.8,0-15.9-2.9-21.2-8.8
			c-5.3-5.8-7.9-13.2-7.9-22.2c0-9.3,2.7-17,8.1-22.9c5.4-6,12.7-8.9,21.9-8.9c8.8,0,16,2.9,21.3,8.8
			C318.1,19,320.6,26.4,320.6,35.4L320.6,35.4z M306.7,35.7c0-5.6-1.2-10.2-3.6-14.2c-2.8-4.8-6.9-7.2-12-7.2
			c-5.4,0-9.5,2.4-12.3,7.2c-2.4,3.9-3.6,8.8-3.6,14.5c0,5.6,1.2,10.3,3.6,14.2c2.9,4.8,7,7.2,12.2,7.2c5.1,0,9.1-2.4,12-7.3
			C305.5,46,306.7,41.2,306.7,35.7z"/>
		<path id="Fill-10" class="st1" d="M364.2,17.5c-1.3-0.2-2.7-0.3-4.2-0.3c-4.7,0-8.4,1.7-10.9,5.3c-2.2,3.1-3.3,7.1-3.3,11.9V66
			h-13.4V24.7c0-7-0.1-13.3-0.4-19h11.7l0.5,11.5h0.4c1.4-3.9,3.6-7.2,6.7-9.6c3-2.1,6.2-3.2,9.7-3.2c1.2,0,2.4,0.1,3.3,0.2
			L364.2,17.5"/>
		<path id="Fill-11" class="st1" d="M424.1,33c0,2.4-0.2,4.4-0.5,6.1h-40.2c0.2,6,2.1,10.5,5.8,13.7c3.4,2.8,7.8,4.2,13.1,4.2
			c6,0,11.4-1,16.3-2.8l2.1,9.3c-5.7,2.5-12.4,3.7-20.2,3.7c-9.3,0-16.7-2.8-22-8.3c-5.3-5.5-8-12.9-8-22.2c0-9.1,2.5-16.6,7.5-22.7
			c5.2-6.5,12.2-9.7,21-9.7c8.7,0,15.3,3.2,19.7,9.7C422.3,19.2,424.1,25.5,424.1,33L424.1,33z M411.3,29.5
			c0.1-3.9-0.8-7.4-2.6-10.3c-2.3-3.7-5.9-5.6-10.6-5.6c-4.3,0-7.9,1.8-10.6,5.4c-2.2,2.9-3.6,6.4-3.9,10.4L411.3,29.5L411.3,29.5z"
			/>
	</g>
	<g id="Available-on-the" transform="translate(468 91)">
		<path id="Fill-12" class="st1" d="M-46,79.5h-7l-3.8-12h-13.4l-3.7,12h-6.8l13.2-41.1h8.2L-46,79.5z M-58.1,62.3l-3.5-10.7
			c-0.3-1.1-1-3.7-2.1-7.8h-0.1c-0.5,1.7-1,4.3-2,7.8l-3.4,10.7H-58.1z"/>
		<path id="Fill-13" class="st1" d="M-13,49.8l-11.2,29.7h-6.4l-10.9-29.7h7.1l5.1,15.7c0.8,2.6,1.6,5.1,2.1,7.5h0.2
			c0.5-2.1,1.2-4.7,2.1-7.5l5-15.7H-13"/>
		<path id="Fill-14" class="st1" d="M10.9,79.5l-0.5-3.4h-0.2c-2,2.7-4.9,4.1-8.7,4.1c-5.3,0-9.1-3.7-9.1-8.7
			c0-7.3,6.4-11.1,17.3-11.1v-0.6c0-3.9-2.1-5.8-6.2-5.8c-2.9,0-5.5,0.7-7.8,2.2l-1.4-4.3c2.7-1.7,6.2-2.5,10.2-2.5
			c7.8,0,11.7,4.1,11.7,12.3v10.9c0,3,0.1,5.3,0.5,7.1L10.9,79.5L10.9,79.5z M10,64.7c-7.3,0-11,1.7-11,6c0,3.1,1.9,4.7,4.5,4.7
			c3.3,0,6.5-2.5,6.5-6.1V64.7z"/>
		<path id="Fill-15" class="st1" d="M31,45c-2.2,0-3.9-1.7-3.9-3.9c0-2.2,1.7-3.9,4-3.9s4.1,1.6,4,3.9C35.2,43.4,33.5,45,31,45
			L31,45z M27.9,49.8h6.6v29.6h-6.6V49.8z"/>
		<path id="Fill-16" class="st1" d="M46.2,36.2h6.6v43.2h-6.6V36.2z"/>
		<path id="Fill-17" class="st1" d="M80.7,79.5l-0.5-3.4H80c-2,2.7-4.9,4.1-8.7,4.1c-5.3,0-9.1-3.7-9.1-8.7
			c0-7.3,6.4-11.1,17.3-11.1v-0.6c0-3.9-2.1-5.8-6.2-5.8c-2.9,0-5.5,0.7-7.8,2.2l-1.4-4.3c2.7-1.7,6.2-2.5,10.2-2.5
			c7.8,0,11.7,4.1,11.7,12.3v10.9c0,3,0.1,5.3,0.4,7.1L80.7,79.5L80.7,79.5L80.7,79.5z M79.8,64.7c-7.3,0-11,1.7-11,6
			c0,3.1,1.9,4.7,4.5,4.7c3.3,0,6.5-2.5,6.5-6.1V64.7z"/>
		<path id="Fill-18" class="st1" d="M112.9,80.2c-4.2,0-7.3-1.7-9.3-5.3h-0.1l-0.4,4.6h-5.6c0.2-2.4,0.2-5.1,0.2-8V36.2h6.6v17.9
			h0.1c2-3.3,5.1-4.9,9.5-4.9c7.1,0,12.1,6.1,12.1,15C126,73.4,120.4,80.2,112.9,80.2z M111.5,54.4c-3.8,0-7.3,3.3-7.3,7.9v5.2
			c0,4.1,3.1,7.4,7.1,7.4c4.9,0,7.9-4,7.9-10.4C119.3,58.5,116.3,54.4,111.5,54.4z"/>
		<path id="Fill-19" class="st1" d="M135.7,36.2h6.6v43.2h-6.6V36.2z"/>
		<path id="Fill-20" class="st1" d="M178.1,66.2h-19.8c0.1,5.6,3.8,8.8,9.3,8.8c2.9,0,5.6-0.5,8-1.4l1,4.6c-2.8,1.2-6.1,1.8-9.9,1.8
			c-9.3,0-14.8-5.8-14.8-15c0-9.1,5.6-15.9,14.1-15.9c7.5,0,12.3,5.6,12.3,14.1C178.4,64.4,178.4,65.5,178.1,66.2L178.1,66.2z
			 M172.1,61.5c0-4.6-2.3-7.8-6.5-7.8c-3.8,0-6.7,3.3-7.2,7.8H172.1z"/>
		<path id="Fill-21" class="st1" d="M218,80.2c-8.7,0-14.3-6.5-14.3-15.2c0-9.2,5.7-15.7,14.8-15.7c8.5,0,14.3,6.2,14.3,15.2
			C232.8,73.7,226.9,80.2,218,80.2z M218.4,54.1c-4.8,0-7.8,4.5-7.8,10.6c0,6.1,3.1,10.5,7.8,10.5s7.8-4.8,7.8-10.7
			C226,58.5,223,54.1,218.4,54.1L218.4,54.1z"/>
		<path id="Fill-22" class="st1" d="M268.2,79.5h-6.6v-17c0-5.3-2-7.9-6-7.9c-3.9,0-6.6,3.3-6.6,7.3v17.6h-6.6V58.3
			c0-2.6-0.1-5.4-0.2-8.5h5.8l0.3,4.6h0.2c1.7-3.2,5.4-5.2,9.4-5.2c6.2,0,10.3,4.8,10.3,12.5L268.2,79.5"/>
		<path id="Fill-23" class="st1" d="M311.3,54.8H304v14.4c0,3.7,1.3,5.5,3.8,5.5c1.1,0,2.1-0.1,2.9-0.3l0.2,5
			c-1.3,0.5-3,0.7-5.1,0.7c-5.2,0-8.3-2.9-8.3-10.4v-15h-4.3v-4.9h4.3v-5.4l6.5-2v7.4h7.3L311.3,54.8"/>
		<path id="Fill-24" class="st1" d="M346.2,79.5h-6.6V62.6c0-5.3-2-8-6-8c-3.4,0-6.6,2.3-6.6,7v17.8h-6.6V36.2h6.6V54h0.1
			c2.1-3.2,5.1-4.8,8.9-4.8c6.3,0,10.1,4.9,10.1,12.6L346.2,79.5"/>
		<path id="Fill-25" class="st1" d="M379.8,66.2H360c0.1,5.6,3.8,8.8,9.3,8.8c2.9,0,5.6-0.5,8-1.4l1,4.6c-2.8,1.2-6.1,1.8-9.9,1.8
			c-9.3,0-14.8-5.8-14.8-15c0-9.1,5.6-15.9,14.1-15.9c7.5,0,12.3,5.6,12.3,14.1C380.1,64.4,380,65.5,379.8,66.2z M373.8,61.5
			c0-4.6-2.3-7.8-6.5-7.8c-3.8,0-6.8,3.3-7.2,7.8H373.8z"/>
	</g>
</g>
</svg>
