<svg width="138" height="142" viewBox="0 0 138 142" fill="none" xmlns="http://www.w3.org/2000/svg">
<g clip-path="url(#clip0_4623_33097)">
<mask id="mask0_4623_33097" style="mask-type:alpha" maskUnits="userSpaceOnUse" x="23" y="0" width="91" height="90">
<path d="M23.8667 45.1755C23.8667 69.8415 43.9336 89.9084 68.5996 89.9084C93.2644 89.9084 113.331 69.8415 113.331 45.1755C113.331 20.5107 93.2644 0.445007 68.5996 0.445007C43.9336 0.445007 23.8667 20.5107 23.8667 45.1755ZM26.4865 45.1755C26.4865 21.918 45.342 3.06483 68.6008 3.06483C91.8596 3.06483 110.711 21.918 110.711 45.1743C110.711 68.4331 91.8572 87.2874 68.5996 87.2874C45.3408 87.2874 26.4877 68.4319 26.4877 45.1743L26.4865 45.1755ZM89.1123 21.2474L88.9369 21.4024L88.9405 21.4108C88.1209 22.2568 88.0392 23.622 88.7758 24.4993C88.9417 24.6976 89.1196 24.8971 89.3455 25.0257L88.6184 25.6458L89.8442 27.0819L93.4543 23.997L92.2429 22.5501L91.1734 23.4634C90.9246 23.6773 90.5196 23.6461 90.3057 23.3973C90.0846 23.1389 90.1146 22.7484 90.3742 22.5284L91.499 21.567L90.3574 20.2295L89.1123 21.2474ZM44.7556 24.9127C41.1203 29.4782 39.1987 34.9798 39.1987 40.8264C39.1987 47.3351 41.6322 53.4796 46.0487 58.2242C46.6051 58.2242 47.9547 57.1907 48.3164 56.7292C44.8601 53.1239 42.59 48.5068 42.036 43.5399C41.4568 38.3471 42.5432 33.3611 45.1233 29.0756C45.2099 28.9314 45.318 28.7631 45.4394 28.5805C46.259 27.3547 46.0066 25.7059 44.8541 24.7877L44.7544 24.9127H44.7556ZM92.4088 26.6673L92.5121 26.7911C96.4238 31.4959 98.6771 37.3112 99.0304 43.6096C99.3633 49.5727 97.9284 55.3532 94.9493 60.2419C94.7666 60.5399 94.5082 60.9209 94.2306 61.3151C93.3798 62.5252 93.6165 64.1873 94.7618 65.1222L94.8627 64.9985C99.7238 59.0401 102.156 51.391 101.71 43.4594C101.326 36.583 98.8586 30.2257 94.5767 25.075L94.4734 24.9512L92.4088 26.6673ZM72.2649 35.3391C66.0086 38.6548 63.6147 46.4422 66.9292 52.6985C68.5347 55.7293 71.2254 57.9538 74.5038 58.9596C77.7437 59.9583 81.2925 59.623 84.2885 58.0343C85.3484 57.4731 86.3207 56.764 87.1895 55.9216C85.8015 58.6015 83.6744 60.7743 80.9897 62.2404C78.8458 63.3472 76.5492 63.9205 74.1637 63.9433C71.8443 63.9685 69.5947 63.4746 67.5372 62.5108C67.1166 62.2861 66.702 62.0481 66.2934 61.7982C65.0749 61.0507 63.5018 61.3884 62.6762 62.5553L62.6737 62.5565C63.4429 63.1465 64.2336 63.6981 65.0532 64.1933L65.9425 64.7076V64.7052C68.316 65.8986 70.9418 66.5619 73.5977 66.6232C73.7924 66.628 73.9907 66.6292 74.189 66.628C76.8376 66.6016 79.5079 65.9611 81.921 64.7737L81.9271 64.7893L82.3092 64.5826L82.3957 64.5394L82.5315 64.4565L82.5291 64.4541C86.5238 62.1875 89.4621 58.5306 90.8116 54.1394C92.0602 50.0763 91.8547 45.8653 90.218 41.9644C90.0377 41.5138 89.8394 41.0799 89.6243 40.6749L89.539 40.5235L89.3984 40.6004L89.5185 40.4827L89.4464 40.3445L89.4404 40.3469C87.0946 36.214 82.7154 33.861 78.222 33.861C76.2007 33.861 74.1589 34.3369 72.2649 35.3391ZM75.2934 56.3915C72.6976 55.5935 70.5705 53.8354 69.3014 51.4415C68.0336 49.0476 67.7752 46.3004 68.5732 43.7034C69.3699 41.1076 71.1281 38.9793 73.522 37.7114C75.0482 36.9014 76.7679 36.494 78.4912 36.5337C82.1145 36.6166 85.4446 38.6368 87.1799 41.8046C87.2544 41.95 87.3277 42.0978 87.3986 42.2432C87.4551 42.3598 87.5104 42.4764 87.5621 42.5941C87.615 42.7083 87.6654 42.8225 87.7111 42.9342C88.5788 45.1034 88.6725 47.4324 87.9851 49.6701C87.1883 52.2647 85.429 54.3918 83.0315 55.6608C81.5509 56.448 79.9321 56.8457 78.299 56.8457C77.2943 56.8457 76.2836 56.6955 75.2946 56.3915H75.2934ZM57.1649 43.6685C57.2334 43.8404 57.2947 44.0002 57.3404 44.1372C58.0494 46.2619 58.2741 48.5116 57.9941 50.7649C57.898 51.5424 57.7417 52.3151 57.5302 53.0602C56.7707 55.7497 55.2998 58.1677 53.2784 60.052L53.2352 60.0893C52.8085 60.4859 52.3411 60.868 51.8471 61.2273C51.4037 61.5494 50.9422 61.8487 50.4783 62.1166C48.3621 63.2703 46.0787 63.8964 43.692 63.9734C41.5133 64.0491 39.3465 63.6465 37.33 62.804C36.8252 62.5925 36.3289 62.3534 35.8446 62.0878C36.5308 63.4145 37.2891 64.6968 38.1255 65.9238C39.7755 66.4093 41.4916 66.6665 43.1969 66.6665C43.3904 66.6665 43.5851 66.6629 43.7798 66.6569C46.4284 66.5703 49.0831 65.8697 51.4674 64.6271L51.4746 64.6427L52.0719 64.2978L52.0695 64.2942C52.3988 64.0971 52.7028 63.9037 52.996 63.7042C53.2352 63.5407 53.4695 63.3713 53.699 63.1994C54.1197 62.8798 54.5415 62.5312 54.9489 62.1599C55.7937 61.3908 56.5664 60.5375 57.2466 59.6242C57.7562 58.9368 58.2212 58.2061 58.6262 57.455C59.256 56.2857 59.7571 55.0527 60.114 53.7921C60.2102 53.4436 60.3039 53.065 60.3952 52.6312C61.3001 48.389 60.6308 43.9605 58.5073 40.1654L58.4292 40.026C57.1457 40.7434 56.6121 42.3057 57.1649 43.6685Z" fill="white"/>
</mask>
<g mask="url(#mask0_4623_33097)">
<path fill-rule="evenodd" clip-rule="evenodd" d="M23.8667 45.1755C23.8667 69.8415 43.9336 89.9084 68.5996 89.9084C93.2644 89.9084 113.331 69.8415 113.331 45.1755C113.331 20.5107 93.2644 0.445007 68.5996 0.445007C43.9336 0.445007 23.8667 20.5107 23.8667 45.1755ZM26.4865 45.1755C26.4865 21.918 45.342 3.06483 68.6008 3.06483C91.8596 3.06483 110.711 21.918 110.711 45.1743C110.711 68.4331 91.8572 87.2874 68.5996 87.2874C45.3408 87.2874 26.4877 68.4319 26.4877 45.1743L26.4865 45.1755ZM89.1123 21.2474L88.9369 21.4024L88.9405 21.4108C88.1209 22.2568 88.0392 23.622 88.7758 24.4993C88.9417 24.6976 89.1196 24.8971 89.3455 25.0257L88.6184 25.6458L89.8442 27.0819L93.4543 23.997L92.2429 22.5501L91.1734 23.4634C90.9246 23.6773 90.5196 23.6461 90.3057 23.3973C90.0846 23.1389 90.1146 22.7484 90.3742 22.5284L91.499 21.567L90.3574 20.2295L89.1123 21.2474ZM44.7556 24.9127C41.1203 29.4782 39.1987 34.9798 39.1987 40.8264C39.1987 47.3351 41.6322 53.4796 46.0487 58.2242C46.6051 58.2242 47.9547 57.1907 48.3164 56.7292C44.8601 53.1239 42.59 48.5068 42.036 43.5399C41.4568 38.3471 42.5432 33.3611 45.1233 29.0756C45.2099 28.9314 45.318 28.7631 45.4394 28.5805C46.259 27.3547 46.0066 25.7059 44.8541 24.7877L44.7544 24.9127H44.7556ZM92.4088 26.6673L92.5121 26.7911C96.4238 31.4959 98.6771 37.3112 99.0304 43.6096C99.3633 49.5727 97.9284 55.3532 94.9493 60.2419C94.7666 60.5399 94.5082 60.9209 94.2306 61.3151C93.3798 62.5252 93.6165 64.1873 94.7618 65.1222L94.8627 64.9985C99.7238 59.0401 102.156 51.391 101.71 43.4594C101.326 36.583 98.8586 30.2257 94.5767 25.075L94.4734 24.9512L92.4088 26.6673ZM72.2649 35.3391C66.0086 38.6548 63.6147 46.4422 66.9292 52.6985C68.5347 55.7293 71.2254 57.9538 74.5038 58.9596C77.7437 59.9583 81.2925 59.623 84.2885 58.0343C85.3484 57.4731 86.3207 56.764 87.1895 55.9216C85.8015 58.6015 83.6744 60.7743 80.9897 62.2404C78.8458 63.3472 76.5492 63.9205 74.1637 63.9433C71.8443 63.9685 69.5947 63.4746 67.5372 62.5108C67.1166 62.2861 66.702 62.0481 66.2934 61.7982C65.0749 61.0507 63.5018 61.3884 62.6762 62.5553L62.6737 62.5565C63.4429 63.1465 64.2336 63.6981 65.0532 64.1933L65.9425 64.7076V64.7052C68.316 65.8986 70.9418 66.5619 73.5977 66.6232C73.7924 66.628 73.9907 66.6292 74.189 66.628C76.8376 66.6016 79.5079 65.9611 81.921 64.7737L81.9271 64.7893L82.3092 64.5826L82.3957 64.5394L82.5315 64.4565L82.5291 64.4541C86.5238 62.1875 89.4621 58.5306 90.8116 54.1394C92.0602 50.0763 91.8547 45.8653 90.218 41.9644C90.0377 41.5138 89.8394 41.0799 89.6243 40.6749L89.539 40.5235L89.3984 40.6004L89.5185 40.4827L89.4464 40.3445L89.4404 40.3469C87.0946 36.214 82.7154 33.861 78.222 33.861C76.2007 33.861 74.1589 34.3369 72.2649 35.3391ZM75.2934 56.3915C72.6976 55.5935 70.5705 53.8354 69.3014 51.4415C68.0336 49.0476 67.7752 46.3004 68.5732 43.7034C69.3699 41.1076 71.1281 38.9793 73.522 37.7114C75.0482 36.9014 76.7679 36.494 78.4912 36.5337C82.1145 36.6166 85.4446 38.6368 87.1799 41.8046C87.2544 41.95 87.3277 42.0978 87.3986 42.2432C87.4551 42.3598 87.5104 42.4764 87.5621 42.5941C87.615 42.7083 87.6654 42.8225 87.7111 42.9342C88.5788 45.1034 88.6725 47.4324 87.9851 49.6701C87.1883 52.2647 85.429 54.3918 83.0315 55.6608C81.5509 56.448 79.9321 56.8457 78.299 56.8457C77.2943 56.8457 76.2836 56.6955 75.2946 56.3915H75.2934ZM57.1649 43.6685C57.2334 43.8404 57.2947 44.0002 57.3404 44.1372C58.0494 46.2619 58.2741 48.5116 57.9941 50.7649C57.898 51.5424 57.7417 52.3151 57.5302 53.0602C56.7707 55.7497 55.2998 58.1677 53.2784 60.052L53.2352 60.0893C52.8085 60.4859 52.3411 60.868 51.8471 61.2273C51.4037 61.5494 50.9422 61.8487 50.4783 62.1166C48.3621 63.2703 46.0787 63.8964 43.692 63.9734C41.5133 64.0491 39.3465 63.6465 37.33 62.804C36.8252 62.5925 36.3289 62.3534 35.8446 62.0878C36.5308 63.4145 37.2891 64.6968 38.1255 65.9238C39.7755 66.4093 41.4916 66.6665 43.1969 66.6665C43.3904 66.6665 43.5851 66.6629 43.7798 66.6569C46.4284 66.5703 49.0831 65.8697 51.4674 64.6271L51.4746 64.6427L52.0719 64.2978L52.0695 64.2942C52.3988 64.0971 52.7028 63.9037 52.996 63.7042C53.2352 63.5407 53.4695 63.3713 53.699 63.1994C54.1197 62.8798 54.5415 62.5312 54.9489 62.1599C55.7937 61.3908 56.5664 60.5375 57.2466 59.6242C57.7562 58.9368 58.2212 58.2061 58.6262 57.455C59.256 56.2857 59.7571 55.0527 60.114 53.7921C60.2102 53.4436 60.3039 53.065 60.3952 52.6312C61.3001 48.389 60.6308 43.9605 58.5073 40.1654L58.4292 40.026C57.1457 40.7434 56.6121 42.3057 57.1649 43.6685Z" fill="white"/>
</g>
<mask id="mask1_4623_33097" style="mask-type:alpha" maskUnits="userSpaceOnUse" x="0" y="104" width="36" height="38">
<path d="M0.5 104.738H35.8316V141.736H0.5V104.738Z" fill="white"/>
</mask>
<g mask="url(#mask1_4623_33097)">
<path fill-rule="evenodd" clip-rule="evenodd" d="M13.2771 125.681H25.6095L19.4433 112.905L13.2771 125.681ZM0.5 141.736L18.3316 104.738H20.5549L35.8316 136.514L33.3319 141.736L27.6645 130.015H11.1668L7.22261 138.292C6.73951 139.256 6.11099 140.06 5.33225 140.708C4.55472 141.357 3.77718 141.699 3.00085 141.736H0.5Z" fill="white"/>
</g>
<mask id="mask2_4623_33097" style="mask-type:alpha" maskUnits="userSpaceOnUse" x="38" y="104" width="30" height="38">
<path d="M38.3867 104.738H67.6627V141.736H38.3867V104.738Z" fill="white"/>
</mask>
<g mask="url(#mask2_4623_33097)">
<path fill-rule="evenodd" clip-rule="evenodd" d="M67.6624 127.855C67.6264 130.03 67.237 131.975 66.4967 133.688C65.7552 135.403 64.747 136.861 63.4683 138.058C62.1908 139.256 60.6634 140.169 58.886 140.795C57.1074 141.424 55.1642 141.736 53.0527 141.736C50.904 141.736 48.9319 141.414 47.1365 140.768C45.3398 140.124 43.7944 139.183 42.4977 137.949C41.1998 136.711 40.1927 135.209 39.4693 133.44C38.7482 131.671 38.3877 129.661 38.3877 127.413V104.738H43.1082V127.634C43.1082 130.805 44.0251 133.202 45.859 134.823C47.6917 136.445 50.0892 137.256 53.0527 137.256C56.015 137.256 58.4125 136.445 60.2464 134.823C62.0803 133.2 62.9972 130.805 62.9972 127.634V110.158C62.9972 109.532 63.1174 108.906 63.3577 108.277C63.5981 107.651 63.9214 107.08 64.33 106.562C64.7374 106.047 65.2096 105.624 65.7468 105.291C66.2828 104.959 66.8657 104.793 67.4966 104.793H67.6624V127.855Z" fill="white"/>
</g>
<mask id="mask3_4623_33097" style="mask-type:alpha" maskUnits="userSpaceOnUse" x="73" y="104" width="29" height="38">
<path d="M73.7817 104.738H101.113V141.736H73.7817V104.738Z" fill="white"/>
</mask>
<g mask="url(#mask3_4623_33097)">
<path fill-rule="evenodd" clip-rule="evenodd" d="M78.5034 122.145H84.0579C86.7258 122.145 88.7328 121.679 90.0859 120.747C91.4367 119.814 92.1133 118.247 92.1133 116.044C92.1133 113.843 91.4367 112.136 90.0859 110.923C88.7328 109.711 86.7246 109.104 84.0579 109.104H78.5034V122.145ZM83.8356 126.511H78.5034V136.306C78.5034 136.943 78.3833 137.576 78.1429 138.209C77.9014 138.844 77.5781 139.423 77.1695 139.945C76.7609 140.467 76.2898 140.896 75.7538 141.232C75.2154 141.568 74.6326 141.736 74.0041 141.736H73.7817V104.738H84.1697C86.0949 104.738 87.8447 104.999 89.419 105.522C90.9933 106.044 92.3356 106.791 93.446 107.76C94.5577 108.731 95.4193 109.916 96.0298 111.314C96.6403 112.714 96.9456 114.291 96.9456 116.044C96.9456 118.731 96.2329 120.896 94.8076 122.537C93.3823 124.18 91.4271 125.318 88.9467 125.951L101.113 141.736H95.3917L83.8356 126.51V126.511Z" fill="white"/>
</g>
<mask id="mask4_4623_33097" style="mask-type:alpha" maskUnits="userSpaceOnUse" x="101" y="104" width="37" height="38">
<path d="M101.779 104.738H137.11V141.736H101.779V104.738Z" fill="white"/>
</mask>
<g mask="url(#mask4_4623_33097)">
<path fill-rule="evenodd" clip-rule="evenodd" d="M114.556 125.681H126.889L120.721 112.905L114.556 125.681ZM101.779 141.736L119.611 104.738H121.834L137.111 136.514L134.611 141.736L128.944 130.015H112.445L108.501 138.292C108.02 139.256 107.39 140.06 106.612 140.708C105.834 141.357 105.056 141.699 104.279 141.736H101.779Z" fill="white"/>
</g>
</g>
<defs>
<clipPath id="clip0_4623_33097">
<rect width="137" height="141.807" fill="white" transform="translate(0.5 0.0964966)"/>
</clipPath>
</defs>
</svg>
