<svg class="DonenessGuide-cookingTimeIcon" xmlns="http://www.w3.org/2000/svg" viewBox="0 0 65.93 75.6"><defs><style>.cls-1-timer{fill:#24211e;}.cls-2-timer{font-size:18.41px;fill:#b5121b;text-transfor:uppercase;}</style></defs><g data-name="Layer 2"><g data-name="Layer 1"><path class="cls-1-timer" d="M55.15,64.81a31.43,31.43,0,1,1,9.2-22.22,31.22,31.22,0,0,1-9.2,22.22m-4.33-50,.62-1.15L53.84,15a.53.53,0,0,0,.72-.21L56.64,11a.51.51,0,0,0-.21-.72L48.5,5.92a.52.52,0,0,0-.71.21L45.7,9.9a.56.56,0,0,0,.21.73L48.32,12l-.61,1.1A32.61,32.61,0,0,0,35.15,9.64V8.42h4.74A1.16,1.16,0,0,0,41,7.27V1.14A1.15,1.15,0,0,0,39.89,0H26a1.14,1.14,0,0,0-1.13,1.14V7.27A1.15,1.15,0,0,0,26,8.42h4.75V9.64a32.66,32.66,0,0,0-12.57,3.41L17.61,12,20,10.63a.55.55,0,0,0,.2-.73L18.15,6.13a.54.54,0,0,0-.72-.21L9.5,10.3a.53.53,0,0,0-.2.72l2.08,3.78a.52.52,0,0,0,.71.21l2.4-1.34.64,1.15a33,33,0,1,0,35.69,0"></path><path class="cls-1-timer" d="M56.48,53h-47A2.55,2.55,0,0,1,6.9,50.5V34.67a2.55,2.55,0,0,1,2.55-2.54h47A2.55,2.55,0,0,1,59,34.67V50.5A2.55,2.55,0,0,1,56.48,53m-1.81-32.2a30.79,30.79,0,1,0,9,21.75,30.62,30.62,0,0,0-9-21.75"></path><text class="cls-2-timer" transform="translate(8 48.85)">DONE</text></g></g></svg>