<?xml version="1.0" encoding="utf-8"?>
<!-- Generator: Adobe Illustrator 27.2.0, SVG Export Plug-In . SVG Version: 6.00 Build 0)  -->
<svg width="1080" height="433.7" version="1.1" id="Layer_1" xmlns="http://www.w3.org/2000/svg" xmlns:xlink="http://www.w3.org/1999/xlink" x="0px" y="0px"
	 viewBox="0 0 1080 433.7" style="enable-background:new 0 0 1080 433.7;" xml:space="preserve">
<style type="text/css">
	.st0{fill:none;stroke:#FFFFFF;stroke-width:1.3384;stroke-miterlimit:10;}
	.st1{fill:#FFFFFF;}
</style>
<g>
	<path id="background_00000170966761994234585200000004630905368282520497_" class="st0" d="M155.9,75.3h768.2c18.7,0,34,15.2,34,34
		v215.1c0,18.7-15.2,34-34,34H155.9c-18.7,0-34-15.2-34-34V109.3C121.9,90.5,137.1,75.3,155.9,75.3z"/>
	<g>
		<path class="st1" d="M428,153.7c0,5.2-1.5,9.3-4.6,12.4c-3.5,3.7-8.1,5.5-13.7,5.5c-5.4,0-9.9-1.9-13.7-5.6
			c-3.7-3.7-5.6-8.3-5.6-13.9c0-5.5,1.9-10.1,5.6-13.9c3.7-3.7,8.3-5.6,13.7-5.6c2.7,0,5.2,0.5,7.6,1.6c2.4,1,4.3,2.4,5.8,4.1
			l-3.3,3.3c-2.5-2.9-5.9-4.4-10.2-4.4c-3.9,0-7.3,1.4-10.1,4.1c-2.8,2.7-4.3,6.3-4.3,10.7c0,4.4,1.4,8,4.3,10.7
			c2.8,2.7,6.2,4.1,10.1,4.1c4.1,0,7.6-1.4,10.4-4.1c1.8-1.8,2.8-4.3,3.1-7.5h-13.5v-4.5h18C427.9,151.9,428,152.8,428,153.7"/>
		<path class="st1" d="M428,153.7h-0.6c0,5.1-1.5,9-4.4,12l0,0l0,0c-3.4,3.5-7.7,5.3-13.2,5.3c-5.2,0-9.6-1.8-13.2-5.4
			c-3.6-3.6-5.5-8-5.5-13.4s1.8-9.8,5.5-13.4c3.6-3.6,8-5.4,13.2-5.4c2.6,0,5.1,0.5,7.4,1.5c2.3,1,4.2,2.3,5.6,4l0.5-0.4l-0.4-0.4
			l-3.3,3.3l0.4,0.4l0.5-0.4c-2.6-3.1-6.2-4.7-10.6-4.7c-4,0-7.6,1.4-10.6,4.3c-3,2.9-4.5,6.7-4.5,11.2c0,4.6,1.5,8.3,4.5,11.2
			c2.9,2.8,6.5,4.3,10.6,4.3c4.3,0,7.9-1.4,10.8-4.3c1.9-1.9,3-4.6,3.3-7.9l0.1-0.7h-13.6v-3.2h17.4v-0.6l-0.6,0.1
			c0.2,0.9,0.2,1.8,0.2,2.7h1.2c0-0.9-0.1-1.9-0.3-2.9l-0.1-0.5h-19.1v5.7h14.1v-0.6l-0.6-0.1c-0.3,3.1-1.3,5.5-2.9,7.2
			c-2.7,2.6-5.9,4-9.9,4c-3.8,0-7-1.3-9.7-3.9c-2.7-2.6-4.1-6-4.1-10.3c0-4.3,1.4-7.7,4.1-10.3c2.7-2.6,6-3.9,9.7-3.9
			c4.2,0,7.4,1.4,9.7,4.2l0.4,0.5l3.7-3.7l0.4-0.4l-0.4-0.4c-1.5-1.8-3.5-3.2-6.1-4.3c-2.5-1.1-5.1-1.6-7.9-1.6
			c-5.5,0-10.3,1.9-14.1,5.8c-3.9,3.8-5.8,8.6-5.8,14.3c0,5.7,1.9,10.5,5.8,14.3c3.8,3.8,8.6,5.8,14.1,5.8c5.7,0,10.5-1.9,14.1-5.7
			l-0.4-0.4l0.4,0.4c3.2-3.2,4.8-7.6,4.8-12.8H428 M456.6,138.2h-16.9V150h15.3v4.5h-15.3v11.8h16.9v4.6h-21.7v-37.2h21.7V138.2"/>
		<path class="st1" d="M456.6,138.2v-0.6h-17.5v13h15.3v3.2h-15.3v13H456v3.3h-20.4v-36H456v3.9L456.6,138.2v-0.6V138.2h0.6V133
			h-22.9v38.5h22.9v-5.8h-16.9v-10.6h15.3v-5.7h-15.3v-10.6h16.9v-0.6L456.6,138.2 M476.7,170.8h-4.8v-32.7h-10.4v-4.6h25.5v4.6
			h-10.4V170.8"/>
		<path class="st1" d="M476.7,170.8v-0.6h-4.1v-32.7h-10.4v-3.3h24.3v3.3h-10.4v33.3L476.7,170.8v-0.6V170.8h0.6v-32h10.4V133H461
			v5.8h10.4v32.7h6v-0.6H476.7 M505.6,170.8v-37.2h4.8v37.2H505.6"/>
		<path class="st1" d="M505.6,170.8h0.6v-36.6h3.5v36h-4.1L505.6,170.8h0.7H505.6v0.6h5.4V133h-6v38.5h0.6V170.8 M531.5,170.8h-4.8
			v-32.7h-10.4v-4.6h25.5v4.6h-10.4V170.8"/>
		<path class="st1" d="M531.5,170.8v-0.6h-4.1v-32.7H517v-3.3h24.3v3.3h-10.4v33.3L531.5,170.8v-0.6V170.8h0.6v-32h10.4V133h-26.8
			v5.8h10.4v32.7h6v-0.6H531.5 M566.5,162.9c2.7,2.8,6.1,4.2,10.1,4.2c4,0,7.4-1.4,10.1-4.2c2.7-2.8,4.1-6.4,4.1-10.7
			c0-4.3-1.4-7.9-4.1-10.7c-2.7-2.8-6.1-4.2-10.1-4.2c-4,0-7.4,1.4-10.1,4.2c-2.7,2.8-4.1,6.4-4.1,10.7
			C562.4,156.5,563.8,160.1,566.5,162.9z M590.3,166c-3.6,3.7-8.2,5.7-13.6,5.7c-5.4,0-10-1.9-13.6-5.7c-3.6-3.7-5.5-8.4-5.5-13.8
			c0-5.5,1.8-10,5.5-13.8c3.6-3.7,8.2-5.7,13.6-5.7c5.4,0,9.9,1.9,13.6,5.7c3.7,3.8,5.5,8.4,5.5,13.8
			C595.7,157.6,593.9,162.3,590.3,166z"/>
		<path class="st1" d="M566.5,162.9l-0.4,0.4c2.8,2.9,6.4,4.4,10.5,4.4c4.1,0,7.7-1.5,10.5-4.4c2.9-2.9,4.3-6.7,4.3-11.1
			c0-4.5-1.4-8.2-4.3-11.1c-2.8-2.9-6.4-4.4-10.5-4.4c-4.1,0-7.7,1.5-10.5,4.4c-2.9,2.9-4.3,6.7-4.3,11.1c0,4.5,1.4,8.2,4.3,11.1
			L566.5,162.9l0.4-0.4c-2.6-2.7-3.9-6.1-3.9-10.2c0-4.2,1.3-7.6,3.9-10.2c2.6-2.7,5.8-4,9.7-4c3.8,0,7,1.3,9.7,4
			c2.6,2.7,3.9,6.1,3.9,10.2c0,4.2-1.3,7.6-3.9,10.2c-2.6,2.7-5.8,4-9.7,4c-3.8,0-7-1.3-9.7-4L566.5,162.9z M590.3,166l-0.4-0.4
			c-3.5,3.6-7.9,5.5-13.2,5.5c-5.3,0-9.6-1.8-13.2-5.5l0,0l0,0c-3.5-3.6-5.3-8.1-5.3-13.4c0-5.3,1.7-9.7,5.3-13.4
			c3.5-3.6,7.9-5.5,13.2-5.5c5.3,0,9.6,1.8,13.1,5.5c3.5,3.7,5.3,8.1,5.3,13.4c0,5.3-1.8,9.7-5.3,13.4L590.3,166l0.4,0.4
			c3.7-3.8,5.7-8.7,5.7-14.2c0-5.6-1.9-10.3-5.7-14.2c-3.8-3.9-8.5-5.9-14.1-5.9c-5.6,0-10.3,1.9-14.1,5.8l0,0
			c-3.7,3.9-5.7,8.7-5.7,14.2c0,5.6,1.9,10.4,5.7,14.2l0,0l0,0c3.7,3.9,8.5,5.8,14.1,5.8c5.6,0,10.3-1.9,14.1-5.8L590.3,166z
			 M602.4,170.8v-37.2h5.8l18.1,28.9h0.2l-0.2-7.2v-21.8h4.8v37.2h-5l-18.9-30.3H607l0.2,7.2v23.2L602.4,170.8"/>
		<path class="st1" d="M602.4,170.8h0.6v-36.6h4.9l18.1,28.9h1.2l-0.2-7.8v-21.1h3.5v36h-4l-18.9-30.3h-1.2l0.2,7.8v22.6h-4.1
			L602.4,170.8h0.6H602.4v0.6h5.4v-23.8l-0.2-7.2H607v0.6h0.2v-0.6l-0.5,0.3l19.1,30.6h6v-38.5h-6v22.4l0.2,7.2l0.6,0v-0.6h-0.2v0.6
			l0.5-0.3l-18.2-29.2h-6.8v38.5h0.6L602.4,170.8 M796.7,276.3h11.5v-77.6h-11.5V276.3z M900.8,226.7l-13.2,33.6h-0.4l-13.8-33.6
			h-12.4l20.6,47l-11.7,26.1h12l31.8-73.1H900.8z M835.2,267.5c-3.8,0-9.1-1.9-9.1-6.6c0-6,6.6-8.3,12.2-8.3c5.1,0,7.5,1.1,10.6,2.6
			C848.1,262.4,841.9,267.5,835.2,267.5L835.2,267.5z M836.6,225c-8.4,0-17,3.7-20.6,11.9l10.3,4.3c2.2-4.3,6.3-5.7,10.6-5.7
			c6,0,12,3.6,12.1,10v0.8c-2.1-1.2-6.6-3-12-3c-11,0-22.3,6.1-22.3,17.5c0,10.4,9.1,17.1,19.2,17.1c7.8,0,12-3.5,14.8-7.6h0.4v6
			h11.1v-29.7C860.1,232.7,849.9,225,836.6,225L836.6,225z M765.2,236.1h-16.4v-26.6h16.4c8.6,0,13.6,7.2,13.6,13.3
			C778.7,228.8,773.8,236.1,765.2,236.1z M764.9,198.7h-27.7v77.6h11.5v-29.4h16.1c12.8,0,25.4-9.3,25.4-24.1
			C790.3,208,777.7,198.7,764.9,198.7L764.9,198.7z M613.9,267.5c-8,0-14.7-6.7-14.7-15.9c0-9.3,6.7-16.1,14.7-16.1
			c7.9,0,14.1,6.8,14.1,16.1C628,260.8,621.8,267.5,613.9,267.5L613.9,267.5z M627.2,231h-0.4c-2.6-3.1-7.6-5.9-13.9-5.9
			c-13.2,0-25.2,11.6-25.2,26.5c0,14.8,12.1,26.3,25.2,26.3c6.3,0,11.3-2.8,13.9-6h0.4v3.8c0,10.1-5.4,15.5-14.1,15.5
			c-7.1,0-11.5-5.1-13.3-9.4l-10.1,4.2c2.9,7,10.6,15.6,23.4,15.6c13.6,0,25.1-8,25.1-27.5v-47.4h-11L627.2,231z M646.1,276.3h11.6
			v-77.6h-11.6V276.3z M674.8,250.7c-0.3-10.2,7.9-15.4,13.8-15.4c4.6,0,8.5,2.3,9.8,5.6L674.8,250.7z M710.7,241.9
			c-2.2-5.9-8.9-16.8-22.6-16.8c-13.6,0-24.9,10.7-24.9,26.4c0,14.8,11.2,26.4,26.1,26.4c12.1,0,19.1-7.4,21.9-11.7l-9-6
			c-3,4.4-7.1,7.3-13,7.3s-10.1-2.7-12.8-8l35.2-14.6L710.7,241.9z M430.1,233.2v11.2h26.7c-0.8,6.3-2.9,10.9-6.1,14.1
			c-3.9,3.9-10,8.2-20.6,8.2c-16.5,0-29.3-13.3-29.3-29.8s12.9-29.8,29.3-29.8c8.9,0,15.4,3.5,20.1,8l7.9-7.9
			c-6.7-6.4-15.6-11.3-28-11.3c-22.6,0-41.5,18.4-41.5,41s19,41,41.5,41c12.2,0,21.3-4,28.5-11.5c7.4-7.4,9.7-17.8,9.7-26.2
			c0-2.6-0.2-5-0.6-7H430.1z M498.7,267.5c-8,0-14.9-6.6-14.9-16c0-9.5,6.9-16,14.9-16c8,0,14.9,6.5,14.9,16
			C513.5,260.9,506.7,267.5,498.7,267.5z M498.7,225.1c-14.6,0-26.4,11.1-26.4,26.4c0,15.2,11.9,26.4,26.4,26.4
			c14.6,0,26.4-11.2,26.4-26.4C525.1,236.2,513.2,225.1,498.7,225.1z M556.4,267.5c-8,0-14.9-6.6-14.9-16c0-9.5,6.9-16,14.9-16
			c8,0,14.9,6.5,14.9,16C571.2,260.9,564.4,267.5,556.4,267.5L556.4,267.5z M556.4,225.1c-14.6,0-26.4,11.1-26.4,26.4
			c0,15.2,11.9,26.4,26.4,26.4c14.6,0,26.4-11.2,26.4-26.4C582.8,236.2,570.9,225.1,556.4,225.1L556.4,225.1z"/>
	</g>
	<g>
		<path class="st1" d="M196.2,148v137.7c0,0.8,0.7,1.5,1.5,1.5c0.4,0,0.8-0.2,1.1-0.4l71.7-69.9l-71.7-69.9c-0.6-0.6-1.6-0.6-2.1,0
			C196.3,147.2,196.2,147.6,196.2,148z"/>
		<path class="st1" d="M300.6,188.1l-89.9-49.6l-0.1,0c-1.5-0.8-3,1.2-1.7,2.5l70.5,67.4L300.6,188.1z"/>
		<path class="st1" d="M208.9,292.7c-1.3,1.2,0.2,3.3,1.7,2.5l0.1,0l89.9-49.6l-21.2-20.3L208.9,292.7z"/>
		<path class="st1" d="M336.9,208.1l-25.1-13.8l-23.6,22.6l23.6,22.6l25.1-13.8C343.7,221.8,343.7,211.9,336.9,208.1z"/>
	</g>
</g>
</svg>
