<svg class="Header-socialIcon" width="24px" height="24px" viewBox="0 0 24 24" version="1.1" xmlns="http://www.w3.org/2000/svg" xmlns:xlink="http://www.w3.org/1999/xlink"><g stroke="none" stroke-width="1" fill="none" fill-rule="evenodd"><g transform="translate(-415.000000, -3407.000000)"><g transform="translate(100.000000, 3233.000000)"><g transform="translate(315.000000, 174.000000)"><g><rect x="0" y="0" width="24" height="24"></rect></g><mask fill="#d2202f"><path d="M13.1604388,0.000616387803 C15.3835222,0.0042830992 15.8383759,0.0214075075 16.9476644,0.0720211153 C18.224945,0.130278528 19.0972819,0.333155321 19.8605826,0.629825119 C20.6497014,0.9364506 21.3189233,1.34677713 21.9860969,2.0139031 C22.6532229,2.6810767 23.0635494,3.3502986 23.3702225,4.1394174 C23.6668447,4.90271811 23.8697215,5.77505498 23.9279789,7.05233565 C23.9863792,8.33228386 24.0001933,8.74094317 24.0001933,12.0000238 L24.0001461,12.3165637 C23.9992228,15.2872689 23.9844325,15.7103811 23.9279789,16.9476644 C23.8697215,18.224945 23.6668447,19.0972819 23.3702225,19.8605826 C23.0635494,20.6497014 22.6532229,21.3189233 21.9860969,21.9860969 C21.3189233,22.6532229 20.6497014,23.0635494 19.8605826,23.3702225 C19.0972819,23.6668447 18.224945,23.8697215 16.9476644,23.9279789 C15.753046,23.9824858 15.3174171,23.9981533 12.6149282,24 L11.3851106,24 C8.68258287,23.9981533 8.24695398,23.9824858 7.05233565,23.9279789 C5.77505498,23.8697215 4.90271811,23.6668447 4.1394174,23.3702225 C3.3502986,23.0635494 2.6810767,22.6532229 2.0139031,21.9860969 C1.34677713,21.3189233 0.9364506,20.6497014 0.629825119,19.8605826 C0.333155321,19.0972819 0.130278528,18.224945 0.0720211153,16.9476644 C0.0214075075,15.8383759 0.0042830992,15.3835222 0.000616387803,13.1604388 L0.000616387803,10.8395922 C0.0042830992,8.61647778 0.0214075075,8.1616241 0.0720211153,7.05233565 C0.130278528,5.77505498 0.333155321,4.90271811 0.629825119,4.1394174 C0.9364506,3.3502986 1.34677713,2.6810767 2.0139031,2.0139031 C2.6810767,1.34677713 3.3502986,0.9364506 4.1394174,0.629825119 C4.90271811,0.333155321 5.77505498,0.130278528 7.05233565,0.0720211153 C8.1616241,0.0214075075 8.61647778,0.0042830992 10.8395922,0.000616387803 Z M12.0000238,2.16199982 C8.79581851,2.16199982 8.41626409,2.17424198 7.15089213,2.23197541 C5.98088514,2.28532643 5.34548397,2.48081982 4.92262948,2.64516003 C4.36249137,2.86285126 3.96273977,3.12288986 3.54283863,3.54283863 C3.12288986,3.96273977 2.86285126,4.36249137 2.64516003,4.92262948 C2.48081982,5.34548397 2.28532643,5.98088514 2.23197541,7.15089213 C2.17424198,8.41626409 2.16199982,8.79581851 2.16199982,12.0000238 C2.16199982,15.2041815 2.17424198,15.5837359 2.23197541,16.8491079 C2.28532643,18.0191149 2.48081982,18.654516 2.64516003,19.0773705 C2.86285126,19.6375086 3.1229375,20.0372602 3.54283863,20.4571614 C3.96273977,20.8771101 4.36249137,21.1371487 4.92262948,21.35484 C5.34548397,21.5191802 5.98088514,21.7146736 7.15089213,21.7680246 C8.41612118,21.825758 8.79558034,21.8380002 12.0000238,21.8380002 C15.2044197,21.8380002 15.5839265,21.825758 16.8491079,21.7680246 C18.0191149,21.7146736 18.654516,21.5191802 19.0773705,21.35484 C19.6375086,21.1371487 20.0372602,20.8771101 20.4571614,20.4571614 C20.8771101,20.0372602 21.1371487,19.6375086 21.35484,19.0773705 C21.5191802,18.654516 21.7146736,18.0191149 21.7680246,16.8491079 C21.825758,15.5837359 21.8380002,15.2041815 21.8380002,12.0000238 C21.8380002,8.79581851 21.825758,8.41626409 21.7680246,7.15089213 C21.7146736,5.98088514 21.5191802,5.34548397 21.35484,4.92262948 C21.1371487,4.36249137 20.8771101,3.96273977 20.4571614,3.54283863 C20.0372602,3.12288986 19.6375086,2.86285126 19.0773705,2.64516003 C18.654516,2.48081982 18.0191149,2.28532643 16.8491079,2.23197541 C15.5837359,2.17424198 15.2041815,2.16199982 12.0000238,2.16199982 Z M12.0000238,5.83774244 C15.4033428,5.83774244 18.1622576,8.59665724 18.1622576,12.0000238 C18.1622576,15.4033428 15.4033428,18.1622576 12.0000238,18.1622576 C8.59665724,18.1622576 5.83774244,15.4033428 5.83774244,12.0000238 C5.83774244,8.59665724 8.59665724,5.83774244 12.0000238,5.83774244 Z M12.0000238,7.99993556 C9.7908151,7.99993556 7.99993556,9.7908151 7.99993556,12.0000238 C7.99993556,14.2091849 9.7908151,16.0000644 12.0000238,16.0000644 C14.2091849,16.0000644 16.0000644,14.2091849 16.0000644,12.0000238 C16.0000644,9.7908151 14.2091849,7.99993556 12.0000238,7.99993556 Z M18.4057192,4.15423184 C19.2010306,4.15423184 19.8457682,4.79896943 19.8457682,5.59428076 C19.8457682,6.38959208 19.2010306,7.03428204 18.4057192,7.03428204 C17.6104556,7.03428204 16.965718,6.38959208 16.965718,5.59428076 C16.965718,4.79896943 17.6104556,4.15423184 18.4057192,4.15423184 Z"></path></mask><path fill="#d2202f" d="M13.1604388,0.000616387803 C15.3835222,0.0042830992 15.8383759,0.0214075075 16.9476644,0.0720211153 C18.224945,0.130278528 19.0972819,0.333155321 19.8605826,0.629825119 C20.6497014,0.9364506 21.3189233,1.34677713 21.9860969,2.0139031 C22.6532229,2.6810767 23.0635494,3.3502986 23.3702225,4.1394174 C23.6668447,4.90271811 23.8697215,5.77505498 23.9279789,7.05233565 C23.9863792,8.33228386 24.0001933,8.74094317 24.0001933,12.0000238 L24.0001461,12.3165637 C23.9992228,15.2872689 23.9844325,15.7103811 23.9279789,16.9476644 C23.8697215,18.224945 23.6668447,19.0972819 23.3702225,19.8605826 C23.0635494,20.6497014 22.6532229,21.3189233 21.9860969,21.9860969 C21.3189233,22.6532229 20.6497014,23.0635494 19.8605826,23.3702225 C19.0972819,23.6668447 18.224945,23.8697215 16.9476644,23.9279789 C15.753046,23.9824858 15.3174171,23.9981533 12.6149282,24 L11.3851106,24 C8.68258287,23.9981533 8.24695398,23.9824858 7.05233565,23.9279789 C5.77505498,23.8697215 4.90271811,23.6668447 4.1394174,23.3702225 C3.3502986,23.0635494 2.6810767,22.6532229 2.0139031,21.9860969 C1.34677713,21.3189233 0.9364506,20.6497014 0.629825119,19.8605826 C0.333155321,19.0972819 0.130278528,18.224945 0.0720211153,16.9476644 C0.0214075075,15.8383759 0.0042830992,15.3835222 0.000616387803,13.1604388 L0.000616387803,10.8395922 C0.0042830992,8.61647778 0.0214075075,8.1616241 0.0720211153,7.05233565 C0.130278528,5.77505498 0.333155321,4.90271811 0.629825119,4.1394174 C0.9364506,3.3502986 1.34677713,2.6810767 2.0139031,2.0139031 C2.6810767,1.34677713 3.3502986,0.9364506 4.1394174,0.629825119 C4.90271811,0.333155321 5.77505498,0.130278528 7.05233565,0.0720211153 C8.1616241,0.0214075075 8.61647778,0.0042830992 10.8395922,0.000616387803 Z M12.0000238,2.16199982 C8.79581851,2.16199982 8.41626409,2.17424198 7.15089213,2.23197541 C5.98088514,2.28532643 5.34548397,2.48081982 4.92262948,2.64516003 C4.36249137,2.86285126 3.96273977,3.12288986 3.54283863,3.54283863 C3.12288986,3.96273977 2.86285126,4.36249137 2.64516003,4.92262948 C2.48081982,5.34548397 2.28532643,5.98088514 2.23197541,7.15089213 C2.17424198,8.41626409 2.16199982,8.79581851 2.16199982,12.0000238 C2.16199982,15.2041815 2.17424198,15.5837359 2.23197541,16.8491079 C2.28532643,18.0191149 2.48081982,18.654516 2.64516003,19.0773705 C2.86285126,19.6375086 3.1229375,20.0372602 3.54283863,20.4571614 C3.96273977,20.8771101 4.36249137,21.1371487 4.92262948,21.35484 C5.34548397,21.5191802 5.98088514,21.7146736 7.15089213,21.7680246 C8.41612118,21.825758 8.79558034,21.8380002 12.0000238,21.8380002 C15.2044197,21.8380002 15.5839265,21.825758 16.8491079,21.7680246 C18.0191149,21.7146736 18.654516,21.5191802 19.0773705,21.35484 C19.6375086,21.1371487 20.0372602,20.8771101 20.4571614,20.4571614 C20.8771101,20.0372602 21.1371487,19.6375086 21.35484,19.0773705 C21.5191802,18.654516 21.7146736,18.0191149 21.7680246,16.8491079 C21.825758,15.5837359 21.8380002,15.2041815 21.8380002,12.0000238 C21.8380002,8.79581851 21.825758,8.41626409 21.7680246,7.15089213 C21.7146736,5.98088514 21.5191802,5.34548397 21.35484,4.92262948 C21.1371487,4.36249137 20.8771101,3.96273977 20.4571614,3.54283863 C20.0372602,3.12288986 19.6375086,2.86285126 19.0773705,2.64516003 C18.654516,2.48081982 18.0191149,2.28532643 16.8491079,2.23197541 C15.5837359,2.17424198 15.2041815,2.16199982 12.0000238,2.16199982 Z M12.0000238,5.83774244 C15.4033428,5.83774244 18.1622576,8.59665724 18.1622576,12.0000238 C18.1622576,15.4033428 15.4033428,18.1622576 12.0000238,18.1622576 C8.59665724,18.1622576 5.83774244,15.4033428 5.83774244,12.0000238 C5.83774244,8.59665724 8.59665724,5.83774244 12.0000238,5.83774244 Z M12.0000238,7.99993556 C9.7908151,7.99993556 7.99993556,9.7908151 7.99993556,12.0000238 C7.99993556,14.2091849 9.7908151,16.0000644 12.0000238,16.0000644 C14.2091849,16.0000644 16.0000644,14.2091849 16.0000644,12.0000238 C16.0000644,9.7908151 14.2091849,7.99993556 12.0000238,7.99993556 Z M18.4057192,4.15423184 C19.2010306,4.15423184 19.8457682,4.79896943 19.8457682,5.59428076 C19.8457682,6.38959208 19.2010306,7.03428204 18.4057192,7.03428204 C17.6104556,7.03428204 16.965718,6.38959208 16.965718,5.59428076 C16.965718,4.79896943 17.6104556,4.15423184 18.4057192,4.15423184 Z"></path></g></g></g></g></svg>