<svg class="DonenessGuide-temperatureIcon" xmlns="http://www.w3.org/2000/svg" viewBox="0 0 66.34 66.34"><defs><style>.cls-1-therm{fill:#fff;}.cls-2-therm{fill:#cc3d3d;}.cls-3-therm{fill:#e54240;}</style></defs><g data-name="Layer 2"><g data-name="Layer 1"><path d="M33,64.94A31.57,31.57,0,1,1,64.61,33.37,31.57,31.57,0,0,1,33,64.94M33.17,0A33.17,33.17,0,1,0,66.34,33.17,33.17,33.17,0,0,0,33.17,0"></path><path d="M33,2.62A30.75,30.75,0,1,0,63.79,33.37,30.75,30.75,0,0,0,33,2.62"></path><path class="cls-1-therm" d="M36.75,39.79V14.27a5.28,5.28,0,0,0-10.56,0V39.86a9.56,9.56,0,1,0,10.56-.07"></path><path class="cls-1-therm" d="M44,39.05H40a.38.38,0,0,1,0-.76h4a.38.38,0,0,1,0,.76"></path><path class="cls-1-therm" d="M42.47,36.43H40a.38.38,0,1,1,0-.76h2.51a.38.38,0,1,1,0,.76"></path><path class="cls-1-therm" d="M44,33.82H40a.38.38,0,1,1,0-.76h4a.38.38,0,0,1,0,.76"></path><path class="cls-1-therm" d="M42.47,31.21H40a.39.39,0,0,1,0-.77h2.51a.39.39,0,0,1,0,.77"></path><path class="cls-1-therm" d="M44,27.94H40a.38.38,0,0,1,0-.76h4a.38.38,0,1,1,0,.76"></path><path class="cls-1-therm" d="M42.47,25.33H40a.39.39,0,0,1,0-.77h2.51a.39.39,0,0,1,0,.77"></path><path class="cls-1-therm" d="M44,22.71H40A.38.38,0,1,1,40,22h4a.38.38,0,1,1,0,.76"></path><path class="cls-1-therm" d="M42.47,20.1H40a.38.38,0,1,1,0-.76h2.51a.38.38,0,1,1,0,.76"></path><path class="cls-1-therm" d="M44,17.38H40a.38.38,0,0,1-.38-.38.39.39,0,0,1,.38-.39h4a.39.39,0,0,1,.38.39.38.38,0,0,1-.38.38"></path><path class="cls-1-therm" d="M42.47,14.76H40A.38.38,0,0,1,40,14h2.51a.38.38,0,0,1,0,.76"></path><path class="cls-1-therm" d="M44,12.15H40a.38.38,0,1,1,0-.76h4a.38.38,0,0,1,0,.76"></path><path class="cls-2-therm" d="M33.89,41.64v-8.8H31.41V54.41A6.68,6.68,0,0,0,38,47.79a6.79,6.79,0,0,0-4.14-6.15"></path><path class="cls-3-therm" d="M28.94,32.84v8.8a6.79,6.79,0,0,0-4.14,6.15,6.65,6.65,0,0,0,6.61,6.62V32.84Z"></path></g></g></svg>