<svg class="Footer-socialIcon" xmlns="http://www.w3.org/2000/svg" width="24px" height="24px" viewBox="0 0 825.73 825.73"><g><g><circle fill="#fff" cx="412.86" cy="412.86" r="412.86"></circle><path fill="#d2202f" d="M635.43,358.24c-4.42,.43-8.86,.66-13.3,.68-48.72,0-94.16-24.55-120.85-65.31v222.41c0,90.79-73.59,164.38-164.38,164.38s-164.38-73.59-164.38-164.38,73.59-164.38,164.38-164.38h0c3.43,0,6.78,.31,10.16,.52v81.01c-3.37-.4-6.69-1.02-10.16-1.02-46.34,0-83.9,37.56-83.9,83.9s37.56,83.9,83.9,83.9,87.27-36.51,87.27-82.86l.81-377.73h77.5c7.31,69.49,63.34,123.78,133.04,128.87v90.03"></path></g></g></svg>